<?xml version="1.0" encoding="us-ascii" standalone="no"?><svg xmlns="http://www.w3.org/2000/svg" xmlns:xlink="http://www.w3.org/1999/xlink" contentStyleType="text/css" height="832px" preserveAspectRatio="none" style="width:972px;height:832px;background:#FFFFFF;" version="1.1" viewBox="0 0 972 832" width="972px" zoomAndPan="magnify"><defs/><g><text fill="#000000" font-family="sans-serif" font-size="14" font-weight="bold" lengthAdjust="spacing" textLength="314" x="322" y="24.9659">General Architecture of the Football Platform</text><!--cluster Client--><g id="cluster_Client"><rect fill="#EEEEEE" height="112" rx="2.5" ry="2.5" style="stroke:#181818;stroke-width:1.0;" width="198" x="392" y="189.5679"/><text fill="#000000" font-family="sans-serif" font-size="14" font-weight="bold" lengthAdjust="spacing" textLength="111" x="435.5" y="206.5339">Client (Browser)</text></g><!--cluster Backend (API Server) - Java Spring Boot--><g id="cluster_Backend (API Server) - Java Spring Boot"><path d="M8.5,352.5679 L282.5,352.5679 A3.75,3.75 0 0 1 285,355.0679 L292,377.6358 L962.5,377.6358 A2.5,2.5 0 0 1 965,380.1358 L965,699.0679 A2.5,2.5 0 0 1 962.5,701.5679 L8.5,701.5679 A2.5,2.5 0 0 1 6,699.0679 L6,355.0679 A2.5,2.5 0 0 1 8.5,352.5679 " fill="none" style="stroke:#000000;stroke-width:1.5;"/><line style="stroke:#000000;stroke-width:1.5;" x1="6" x2="292" y1="377.6358" y2="377.6358"/><text fill="#000000" font-family="sans-serif" font-size="14" font-weight="bold" lengthAdjust="spacing" textLength="273" x="10" y="369.5339">Backend (API Server) - Java Spring Boot</text></g><!--cluster Business Logic & Data--><g id="cluster_Business Logic &amp; Data"><path d="M32.5,486.5679 L185.5,486.5679 A3.75,3.75 0 0 1 188,489.0679 L195,511.6358 L938.5,511.6358 A2.5,2.5 0 0 1 941,514.1358 L941,587.0679 A2.5,2.5 0 0 1 938.5,589.5679 L32.5,589.5679 A2.5,2.5 0 0 1 30,587.0679 L30,489.0679 A2.5,2.5 0 0 1 32.5,486.5679 " fill="none" style="stroke:#000000;stroke-width:1.5;"/><line style="stroke:#000000;stroke-width:1.5;" x1="30" x2="195" y1="511.6358" y2="511.6358"/><text fill="#000000" font-family="sans-serif" font-size="14" font-weight="bold" lengthAdjust="spacing" textLength="152" x="34" y="503.5339">Business Logic &amp; Data</text></g><!--entity SPA--><g id="elem_SPA"><rect fill="#EEEEEE" height="58.1358" rx="2.5" ry="2.5" style="stroke:#181818;stroke-width:0.5;" width="167" x="407.5" y="227.5679"/><text fill="#000000" font-family="sans-serif" font-size="14" lengthAdjust="spacing" textLength="147" x="417.5" y="252.5339">Single Page App (SPA)</text><text fill="#000000" font-family="sans-serif" font-size="14" lengthAdjust="spacing" textLength="124" x="417.5" y="271.6018">(React, TypeScript)</text></g><!--entity Controllers--><g id="elem_Controllers"><rect fill="#F1F1F1" height="49.0679" rx="2.5" ry="2.5" style="stroke:#181818;stroke-width:0.5;" width="114" x="434" y="390.5679"/><rect fill="#F1F1F1" height="10" style="stroke:#181818;stroke-width:0.5;" width="15" x="528" y="395.5679"/><rect fill="#F1F1F1" height="2" style="stroke:#181818;stroke-width:0.5;" width="4" x="526" y="397.5679"/><rect fill="#F1F1F1" height="2" style="stroke:#181818;stroke-width:0.5;" width="4" x="526" y="401.5679"/><text fill="#000000" font-family="sans-serif" font-size="14" lengthAdjust="spacing" textLength="74" x="449" y="425.5339">Controllers</text></g><!--entity Repositories--><g id="elem_Repositories"><rect fill="#F1F1F1" height="49.0679" rx="2.5" ry="2.5" style="stroke:#181818;stroke-width:0.5;" width="123" x="429.5" y="636.5679"/><rect fill="#F1F1F1" height="10" style="stroke:#181818;stroke-width:0.5;" width="15" x="532.5" y="641.5679"/><rect fill="#F1F1F1" height="2" style="stroke:#181818;stroke-width:0.5;" width="4" x="530.5" y="643.5679"/><rect fill="#F1F1F1" height="2" style="stroke:#181818;stroke-width:0.5;" width="4" x="530.5" y="647.5679"/><text fill="#000000" font-family="sans-serif" font-size="14" lengthAdjust="spacing" textLength="83" x="444.5" y="671.5339">Repositories</text></g><!--entity CompSvc--><g id="elem_CompSvc"><rect fill="#F1F1F1" height="49.0679" rx="2.5" ry="2.5" style="stroke:#181818;stroke-width:0.5;" width="174" x="46" y="524.5679"/><rect fill="#F1F1F1" height="10" style="stroke:#181818;stroke-width:0.5;" width="15" x="200" y="529.5679"/><rect fill="#F1F1F1" height="2" style="stroke:#181818;stroke-width:0.5;" width="4" x="198" y="531.5679"/><rect fill="#F1F1F1" height="2" style="stroke:#181818;stroke-width:0.5;" width="4" x="198" y="535.5679"/><text fill="#000000" font-family="sans-serif" font-size="14" lengthAdjust="spacing" textLength="134" x="61" y="559.5339">Competition Service</text></g><!--entity MatchSvc--><g id="elem_MatchSvc"><rect fill="#F1F1F1" height="49.0679" rx="2.5" ry="2.5" style="stroke:#181818;stroke-width:0.5;" width="134" x="255" y="524.5679"/><rect fill="#F1F1F1" height="10" style="stroke:#181818;stroke-width:0.5;" width="15" x="369" y="529.5679"/><rect fill="#F1F1F1" height="2" style="stroke:#181818;stroke-width:0.5;" width="4" x="367" y="531.5679"/><rect fill="#F1F1F1" height="2" style="stroke:#181818;stroke-width:0.5;" width="4" x="367" y="535.5679"/><text fill="#000000" font-family="sans-serif" font-size="14" lengthAdjust="spacing" textLength="94" x="270" y="559.5339">Match Service</text></g><!--entity PlayerSvc--><g id="elem_PlayerSvc"><rect fill="#F1F1F1" height="49.0679" rx="2.5" ry="2.5" style="stroke:#181818;stroke-width:0.5;" width="133" x="424.5" y="524.5679"/><rect fill="#F1F1F1" height="10" style="stroke:#181818;stroke-width:0.5;" width="15" x="537.5" y="529.5679"/><rect fill="#F1F1F1" height="2" style="stroke:#181818;stroke-width:0.5;" width="4" x="535.5" y="531.5679"/><rect fill="#F1F1F1" height="2" style="stroke:#181818;stroke-width:0.5;" width="4" x="535.5" y="535.5679"/><text fill="#000000" font-family="sans-serif" font-size="14" lengthAdjust="spacing" textLength="93" x="439.5" y="559.5339">Player Service</text></g><!--entity TeamSvc--><g id="elem_TeamSvc"><rect fill="#F1F1F1" height="49.0679" rx="2.5" ry="2.5" style="stroke:#181818;stroke-width:0.5;" width="129" x="592.5" y="524.5679"/><rect fill="#F1F1F1" height="10" style="stroke:#181818;stroke-width:0.5;" width="15" x="701.5" y="529.5679"/><rect fill="#F1F1F1" height="2" style="stroke:#181818;stroke-width:0.5;" width="4" x="699.5" y="531.5679"/><rect fill="#F1F1F1" height="2" style="stroke:#181818;stroke-width:0.5;" width="4" x="699.5" y="535.5679"/><text fill="#000000" font-family="sans-serif" font-size="14" lengthAdjust="spacing" textLength="89" x="607.5" y="559.5339">Team Service</text></g><!--entity SchedSvc--><g id="elem_SchedSvc"><rect fill="#F1F1F1" height="49.0679" rx="2.5" ry="2.5" style="stroke:#181818;stroke-width:0.5;" width="168" x="757" y="524.5679"/><rect fill="#F1F1F1" height="10" style="stroke:#181818;stroke-width:0.5;" width="15" x="905" y="529.5679"/><rect fill="#F1F1F1" height="2" style="stroke:#181818;stroke-width:0.5;" width="4" x="903" y="531.5679"/><rect fill="#F1F1F1" height="2" style="stroke:#181818;stroke-width:0.5;" width="4" x="903" y="535.5679"/><text fill="#000000" font-family="sans-serif" font-size="14" lengthAdjust="spacing" textLength="128" x="772" y="559.5339">Scheduling Service</text></g><!--entity User--><g id="elem_User"><ellipse cx="267" cy="54.0679" fill="#ADD8E6" rx="8" ry="8" style="stroke:#181818;stroke-width:0.5;"/><path d="M267,62.0679 L267,89.0679 M254,70.0679 L280,70.0679 M267,89.0679 L254,104.0679 M267,89.0679 L280,104.0679 " fill="none" style="stroke:#181818;stroke-width:0.5;"/><text fill="#000000" font-family="sans-serif" font-size="14" lengthAdjust="spacing" textLength="85" x="224.5" y="120.5339">User (Visitor)</text></g><!--entity Admin--><g id="elem_Admin"><ellipse cx="655" cy="54.0679" fill="#ADD8E6" rx="8" ry="8" style="stroke:#181818;stroke-width:0.5;"/><path d="M655,62.0679 L655,89.0679 M642,70.0679 L668,70.0679 M655,89.0679 L642,104.0679 M655,89.0679 L668,104.0679 " fill="none" style="stroke:#181818;stroke-width:0.5;"/><text fill="#000000" font-family="sans-serif" font-size="14" lengthAdjust="spacing" textLength="93" x="608.5" y="120.5339">Administrator</text></g><!--entity DB--><g id="elem_DB"><path d="M449.5,758.5679 C449.5,748.5679 491,748.5679 491,748.5679 C491,748.5679 532.5,748.5679 532.5,758.5679 L532.5,805.7038 C532.5,815.7038 491,815.7038 491,815.7038 C491,815.7038 449.5,815.7038 449.5,805.7038 L449.5,758.5679 " fill="#FFFFFF" style="stroke:#181818;stroke-width:0.5;"/><path d="M449.5,758.5679 C449.5,768.5679 491,768.5679 491,768.5679 C491,768.5679 532.5,768.5679 532.5,758.5679 " fill="none" style="stroke:#181818;stroke-width:0.5;"/><text fill="#000000" font-family="sans-serif" font-size="14" lengthAdjust="spacing" textLength="63" x="459.5" y="787.5339">Database</text><text fill="#000000" font-family="sans-serif" font-size="14" lengthAdjust="spacing" textLength="54" x="459.5" y="806.6018">(MySQL)</text></g><g id="elem_GMN18"><path d="M345,62.5679 L345,81.0679 L309.75,85.0679 L345,89.0679 L345,107.9799 A0,0 0 0 0 345,107.9799 L573,107.9799 A0,0 0 0 0 573,107.9799 L573,72.5679 L563,62.5679 L345,62.5679 A0,0 0 0 0 345,62.5679 " fill="#FEFFDD" style="stroke:#181818;stroke-width:0.5;"/><path d="M563,62.5679 L563,72.5679 L573,72.5679 L563,62.5679 " fill="#FEFFDD" style="stroke:#181818;stroke-width:0.5;"/><text fill="#000000" font-family="sans-serif" font-size="13" lengthAdjust="spacing" textLength="207" x="351" y="81.4649">Public access, no account required.</text><text fill="#000000" font-family="sans-serif" font-size="13" lengthAdjust="spacing" textLength="150" x="351" y="99.1709">Only read requests (GET).</text></g><g id="elem_GMN21"><path d="M737,71.0679 L737,81.0679 L701.69,85.0679 L737,89.0679 L737,98.7739 A0,0 0 0 0 737,98.7739 L861,98.7739 A0,0 0 0 0 861,98.7739 L861,81.0679 L851,71.0679 L737,71.0679 A0,0 0 0 0 737,71.0679 " fill="#FEFFDD" style="stroke:#181818;stroke-width:0.5;"/><path d="M851,71.0679 L851,81.0679 L861,81.0679 L851,71.0679 " fill="#FEFFDD" style="stroke:#181818;stroke-width:0.5;"/><text fill="#000000" font-family="sans-serif" font-size="13" lengthAdjust="spacing" textLength="103" x="743" y="89.9649">Unlimited access.</text></g><!--link User to SPA--><g id="link_User_SPA"><path d="M309.66,118.3479 C351.3,149.8579 409.2258,193.6869 448.9158,223.7269 " fill="none" id="User-to-SPA" style="stroke:#181818;stroke-width:1.0;"/><polygon fill="#181818" points="453.7,227.3479,448.9377,218.727,449.7132,224.3304,444.1097,225.1059,453.7,227.3479" style="stroke:#181818;stroke-width:1.0;"/><text fill="#000000" font-family="sans-serif" font-size="13" lengthAdjust="spacing" textLength="101" x="380" y="169.4649">View (Read-Only)</text></g><!--link Admin to SPA--><g id="link_Admin_SPA"><path d="M617.38,124.9579 C587.11,156.2279 549.4812,195.115 522.3912,223.125 " fill="none" id="Admin-to-SPA" style="stroke:#181818;stroke-width:1.0;"/><polygon fill="#181818" points="518.22,227.4379,527.3521,223.7494,521.696,223.8439,521.6016,218.1878,518.22,227.4379" style="stroke:#181818;stroke-width:1.0;"/><text fill="#000000" font-family="sans-serif" font-size="13" lengthAdjust="spacing" textLength="119" x="588" y="169.4649">Manage (Full CRUD)</text></g><!--link SPA to Controllers--><g id="link_SPA_Controllers"><path d="M491,285.9079 C491,315.8579 491,356.5479 491,384.5379 " fill="none" id="SPA-to-Controllers" style="stroke:#181818;stroke-width:1.0;"/><polygon fill="#181818" points="491,390.5379,495,381.5379,491,385.5379,487,381.5379,491,390.5379" style="stroke:#181818;stroke-width:1.0;"/><text fill="#000000" font-family="sans-serif" font-size="13" lengthAdjust="spacing" textLength="90" x="492" y="332.4649">HTTP Requests</text></g><!--link Controllers to CompSvc--><g id="link_Controllers_CompSvc"><path d="M433.92,424.2779 C381.19,433.1979 301.51,450.1279 237,478.5679 C209.98,490.4779 187.0999,505.7345 167.1099,520.8145 " fill="none" id="Controllers-to-CompSvc" style="stroke:#181818;stroke-width:1.0;"/><polygon fill="#181818" points="162.32,524.4279,171.9138,522.2011,166.3116,521.4167,167.0959,515.8145,162.32,524.4279" style="stroke:#181818;stroke-width:1.0;"/></g><!--link Controllers to MatchSvc--><g id="link_Controllers_MatchSvc"><path d="M458.43,439.7679 C442.75,451.3079 423.77,465.4879 407,478.5679 C387.91,493.4579 371.459,506.8485 355.079,520.4285 " fill="none" id="Controllers-to-MatchSvc" style="stroke:#181818;stroke-width:1.0;"/><polygon fill="#181818" points="350.46,524.2579,359.9415,521.5931,354.3092,521.0667,354.8356,515.4344,350.46,524.2579" style="stroke:#181818;stroke-width:1.0;"/></g><!--link Controllers to TeamSvc--><g id="link_Controllers_TeamSvc"><path d="M523.67,439.6379 C539.37,451.1479 558.35,465.3379 575,478.5679 C593.7,493.4279 609.6574,506.8781 625.4874,520.5381 " fill="none" id="Controllers-to-TeamSvc" style="stroke:#181818;stroke-width:1.0;"/><polygon fill="#181818" points="630.03,524.4579,625.8294,515.5498,626.2445,521.1914,620.6029,521.6065,630.03,524.4579" style="stroke:#181818;stroke-width:1.0;"/></g><!--link Controllers to PlayerSvc--><g id="link_Controllers_PlayerSvc"><path d="M491,439.6679 C491,463.5479 491,494.2679 491,518.2279 " fill="none" id="Controllers-to-PlayerSvc" style="stroke:#181818;stroke-width:1.0;"/><polygon fill="#181818" points="491,524.2279,495,515.2279,491,519.2279,487,515.2279,491,524.2279" style="stroke:#181818;stroke-width:1.0;"/></g><!--link Controllers to SchedSvc--><g id="link_Controllers_SchedSvc"><path d="M548.04,424.5779 C599.56,433.6079 676.63,450.5279 739,478.5679 C765.58,490.5179 787.9532,505.7311 807.5432,520.7911 " fill="none" id="Controllers-to-SchedSvc" style="stroke:#181818;stroke-width:1.0;"/><polygon fill="#181818" points="812.3,524.4479,807.6027,515.7914,808.336,521.4005,802.7269,522.1339,812.3,524.4479" style="stroke:#181818;stroke-width:1.0;"/></g><!--link CompSvc to Repositories--><g id="link_CompSvc_Repositories"><path d="M179.61,573.6079 C197.28,581.9379 217.78,590.8779 237,597.5679 C301.23,619.9179 371.3542,636.2937 423.3742,647.0437 " fill="none" id="CompSvc-to-Repositories" style="stroke:#181818;stroke-width:1.0;"/><polygon fill="#181818" points="429.25,648.2579,421.2457,642.5193,424.3535,647.246,419.6267,650.3538,429.25,648.2579" style="stroke:#181818;stroke-width:1.0;"/></g><!--link MatchSvc to Repositories--><g id="link_MatchSvc_Repositories"><path d="M358.25,573.6679 C386.77,592.2279 421.2814,614.6849 449.7814,633.2349 " fill="none" id="MatchSvc-to-Repositories" style="stroke:#181818;stroke-width:1.0;"/><polygon fill="#181818" points="454.81,636.5079,449.4491,628.2459,450.6195,633.7804,445.085,634.9508,454.81,636.5079" style="stroke:#181818;stroke-width:1.0;"/></g><!--link TeamSvc to Repositories--><g id="link_TeamSvc_Repositories"><path d="M621.39,573.6679 C593.38,592.2279 559.5519,614.6442 531.5519,633.1942 " fill="none" id="TeamSvc-to-Repositories" style="stroke:#181818;stroke-width:1.0;"/><polygon fill="#181818" points="526.55,636.5079,536.262,634.8719,530.7182,633.7465,531.8437,628.2027,526.55,636.5079" style="stroke:#181818;stroke-width:1.0;"/></g><!--link SchedSvc to Repositories--><g id="link_SchedSvc_Repositories"><path d="M795.31,573.5879 C777.98,581.9179 757.87,590.8679 739,597.5679 C676.87,619.6379 609.2387,635.8895 558.4687,646.6895 " fill="none" id="SchedSvc-to-Repositories" style="stroke:#181818;stroke-width:1.0;"/><polygon fill="#181818" points="552.6,647.9379,562.2353,649.9778,557.4906,646.8976,560.5708,642.1528,552.6,647.9379" style="stroke:#181818;stroke-width:1.0;"/></g><!--link PlayerSvc to Repositories--><g id="link_PlayerSvc_Repositories"><path d="M491,573.6679 C491,592.2279 491,611.9579 491,630.5079 " fill="none" id="PlayerSvc-to-Repositories" style="stroke:#181818;stroke-width:1.0;"/><polygon fill="#181818" points="491,636.5079,495,627.5079,491,631.5079,487,627.5079,491,636.5079" style="stroke:#181818;stroke-width:1.0;"/></g><!--link Repositories to DB--><g id="link_Repositories_DB"><path d="M491,691.5779 C491,709.4579 491,722.2879 491,742.1479 " fill="none" id="Repositories-DB" style="stroke:#181818;stroke-width:1.0;"/><polygon fill="#181818" points="491,685.5779,487,694.5779,491,690.5779,495,694.5779,491,685.5779" style="stroke:#181818;stroke-width:1.0;"/><polygon fill="#181818" points="491,748.1479,495,739.1479,491,743.1479,487,739.1479,491,748.1479" style="stroke:#181818;stroke-width:1.0;"/></g><!--SRC=[RLHDRzim3BthLn0Pi3b0qyEEmp0WQT9kGujbSTfTTb5aDXOgIvuajmY6_VUHbkCu7wTOvDFJ8_cOgAD1k4EBNXgOUbNgY2es7i4zGomHRfsB6saCB8sCpyvNGeGNRMlfPGNALRMpQ6CUTyJJLERZ8Ek9ITej9VuAW53AmhrfkuLdQG9IP2FLozQxnXOtpZWFxnQBXVWt82Xab1iPqlqpz2_MUeINAbA2mUVeUxqjuymqV4CauEWne8ViIGTDn_48P00ExTFJej9MX-Wb7Tji6n7YKDZencWg7xAPTszqDP5qGHOoWEQw_LtABSAqhY7BbzFnRvkjaDwxWlMknbnvNST4GbcMMbCXV6Cqem-q1MJJvJV8qR_IQp21x_9LGbvxRkoCPZLgd-q7GmgTZTuPWpuaSOUp8EI1lmdQOWXmxxPQmNkOK_SJsmbVLMFKKJlRoj0AEzwgpb_LAVn1HbKU0Tl81IGPR4Vp649Jw09sZJJk8P835t2vAh5e33TdY6x32VvF7BThXRLh_Q0nzMiOu87qfXpDko-QuSCk_tcVvZQV2V419fD9woMOVDdROOMqGTIrKEewC428X2083Hi-mPF6Ds0_59CVrkp6elNR0F0WBSygksre8MzMZ_En4DP51C_kvfLj_GkmR3Q6XYYLeebUWNNyITiGoP1_6ksnk2OKFq81MRHH3350ThTOZwy56us9J-dJ0d2J7wtH5IrWqJqol9FAxyecyNlhNkW0ryNr3Ln9TNvThvU4Jfe44wxfhqZr62WqBrOuw8wk_RTIpdiCDCk2HnxIo8COigVNabTFutjhmbbcxw_J-C6XfvdUOrqxElznFtfBxIwrf1FNaXoPhrTtbkdKdIVs8iuplV3pb1YUu3FdoTJ_0G00]--></g></svg>